<?xml version="1.0" encoding="utf-8"?>
<svg id="Layer_1" data-name="Layer 1" xmlns="http://www.w3.org/2000/svg" viewBox="0 0 120.88 122.88" version="1.1" xmlns:bx="https://boxy-svg.com">
  <title>5-second</title>
  <path d="M 77.604 8.861 C 81.095 8.697 83.099 4.815 81.212 1.874 C 80.418 0.636 79.073 -0.14 77.604 -0.209 C 31.239 -0.246 2.221 49.923 25.372 90.095 C 41.861 118.707 78.314 128.706 107.094 112.511 L 105.834 115.811 C 104.308 119.395 107.234 123.286 111.101 122.816 C 113.034 122.581 114.661 121.256 115.284 119.411 L 120.284 106.261 C 120.472 105.764 120.58 105.241 120.604 104.711 C 121.032 102.213 119.524 99.79 117.094 99.071 L 103.654 94.951 C 99.94 93.827 96.402 97.145 97.285 100.924 C 97.696 102.678 99.01 104.079 100.734 104.601 L 102.014 104.991 C 98.78 106.755 95.363 108.16 91.824 109.181 C 53.988 120.139 18.478 86.03 27.906 47.784 C 33.542 24.92 54.055 8.854 77.604 8.861 Z" style="transform-box: fill-box; transform-origin: 50% 50%;" transform="matrix(-1, 0, 0, -1, -0.000001, -0.000004)"/>
  <path d="M 38.254 101.433 C 37.534 101.433 36.84 101.433 36.148 101.36 C 35.456 101.285 34.841 101.259 34.121 101.184 L 32.211 100.899 C 31.611 100.8 31.021 100.676 30.46 100.526 L 30.46 95.752 C 31.192 95.818 31.989 95.868 32.852 95.901 C 33.716 95.901 34.579 95.975 35.467 96 C 36.357 96.025 37.169 96 37.926 96 C 38.528 96.01 39.128 95.961 39.718 95.85 C 40.122 95.783 40.496 95.612 40.803 95.354 C 41.052 95.102 41.18 94.765 41.157 94.421 L 41.157 94.049 C 41.171 93.653 40.987 93.274 40.659 93.028 C 40.309 92.792 39.886 92.67 39.457 92.681 L 37.73 92.681 C 35.681 92.819 33.645 92.261 31.989 91.102 C 30.682 90.049 30.028 88.283 30.028 85.805 L 30.028 84.81 C 29.876 82.885 30.672 81.002 32.186 79.713 C 33.982 78.48 36.173 77.881 38.384 78.023 C 39.35 78.015 40.315 78.062 41.275 78.159 C 42.177 78.246 43.028 78.37 43.824 78.494 C 44.623 78.619 45.328 78.768 45.956 78.917 L 45.956 83.691 C 44.95 83.618 43.824 83.543 42.582 83.492 C 41.341 83.443 40.189 83.418 39.168 83.418 C 38.621 83.412 38.074 83.453 37.534 83.543 C 37.119 83.594 36.729 83.768 36.423 84.039 C 36.143 84.335 36.002 84.725 36.03 85.121 L 36.03 85.434 C 35.982 85.903 36.176 86.367 36.552 86.675 C 37.029 86.97 37.595 87.11 38.162 87.073 L 40.254 87.073 C 41.577 87.027 42.888 87.31 44.06 87.894 C 45.038 88.408 45.834 89.187 46.349 90.132 C 46.869 91.127 47.128 92.228 47.106 93.34 L 47.106 94.371 C 47.211 95.934 46.84 97.493 46.035 98.86 C 45.322 99.9 44.226 100.65 42.962 100.961 C 41.409 101.351 39.807 101.535 38.201 101.509 L 38.254 101.433 Z M 57.751 101.433 C 57.12 101.422 56.493 101.367 55.869 101.272 C 55.127 101.162 54.41 100.93 53.75 100.588 C 53.028 100.206 52.431 99.643 52.025 98.958 C 51.536 98.045 51.307 97.025 51.356 96 L 51.356 83.904 C 51.319 82.936 51.508 81.972 51.907 81.081 C 52.227 80.403 52.717 79.811 53.332 79.353 C 53.916 78.932 54.583 78.627 55.293 78.457 C 55.972 78.288 56.671 78.2 57.373 78.196 C 59.204 78.196 60.772 78.196 62.094 78.271 C 63.415 78.346 64.552 78.383 65.519 78.445 C 66.488 78.507 67.338 78.569 68.134 78.657 L 68.134 83.742 L 59.348 83.742 C 58.881 83.696 58.414 83.82 58.038 84.09 C 57.742 84.35 57.587 84.725 57.621 85.109 L 57.621 87.035 L 66.41 87.297 L 66.41 92.07 L 57.634 92.382 L 57.634 94.123 C 57.623 94.434 57.686 94.745 57.817 95.03 C 57.924 95.251 58.097 95.437 58.314 95.565 C 58.535 95.676 58.783 95.731 59.034 95.726 L 68.044 95.726 L 68.044 100.824 C 67.102 100.948 66.042 101.047 64.839 101.134 C 63.637 101.223 62.433 101.272 61.192 101.309 C 59.949 101.347 58.785 101.384 57.699 101.384 M 80.52 101.384 C 79.288 101.415 78.059 101.276 76.871 100.973 C 75.79 100.666 74.819 100.077 74.072 99.271 C 73.181 98.234 72.561 97.011 72.268 95.702 C 71.807 93.709 71.596 91.674 71.64 89.634 C 71.594 87.651 71.812 85.671 72.293 83.742 C 72.605 82.439 73.236 81.223 74.137 80.199 C 74.891 79.38 75.868 78.778 76.962 78.457 C 78.124 78.124 79.333 77.961 80.545 77.973 C 81.738 77.967 82.931 78.035 84.115 78.17 C 84.998 78.283 85.87 78.446 86.731 78.657 C 87.326 78.801 87.906 78.987 88.471 79.216 L 88.471 83.904 C 88.052 83.816 87.528 83.729 86.875 83.654 C 86.22 83.58 85.541 83.567 84.718 83.456 C 83.893 83.343 82.964 83.368 81.985 83.368 C 81.352 83.355 80.723 83.43 80.114 83.592 C 79.608 83.734 79.171 84.042 78.885 84.463 C 78.514 85.044 78.275 85.692 78.178 86.365 C 78.02 87.468 77.949 88.582 77.97 89.697 C 77.957 90.735 78.01 91.774 78.126 92.804 C 78.205 93.486 78.412 94.148 78.741 94.758 C 79.018 95.213 79.452 95.564 79.971 95.752 C 80.659 95.954 81.382 96.038 82.102 96 C 83.715 96 85.023 96 86.025 96 C 87.058 96 87.869 95.888 88.483 95.802 L 88.483 100.488 C 87.862 100.708 87.224 100.883 86.575 101.01 C 85.71 101.175 84.837 101.293 83.959 101.36 C 82.978 101.433 81.814 101.484 80.468 101.484 L 80.52 101.384 Z M 37.73 71.134 C 35.576 71.211 33.435 70.786 31.493 69.891 C 29.855 69.078 28.55 67.765 27.791 66.162 C 26.937 64.385 26.521 62.445 26.576 60.492 L 26.576 42.7 C 26.51 40.609 26.957 38.531 27.884 36.633 C 28.708 35.037 30.046 33.731 31.701 32.903 C 33.6 32.021 35.697 31.594 37.81 31.66 L 46.714 31.66 C 48.743 31.592 50.756 32.021 52.56 32.903 C 54.154 33.753 55.426 35.058 56.196 36.633 C 57.075 38.544 57.494 40.616 57.425 42.7 L 57.425 60.519 C 57.588 63.341 56.589 66.115 54.64 68.25 C 52.527 70.252 49.614 71.303 46.637 71.134 L 37.73 71.134 Z M 40.346 62.047 L 43.642 62.047 C 45.545 62.353 47.18 60.748 46.792 58.951 L 46.792 43.782 C 46.926 42.887 46.645 41.98 46.022 41.295 C 45.497 40.902 44.845 40.696 44.178 40.711 L 39.993 40.711 C 39.216 40.647 38.448 40.916 37.9 41.446 C 37.394 42.125 37.162 42.955 37.247 43.782 L 37.247 58.901 C 37.157 59.757 37.43 60.611 38.005 61.276 C 38.668 61.793 39.517 62.047 40.372 61.985 L 40.346 62.047 Z M 77.368 71.134 C 75.32 71.134 73.056 71.023 70.58 70.799 C 68.104 70.576 65.695 70.338 63.349 70.09 L 63.349 61.985 L 77.864 61.985 C 78.696 62.061 79.53 61.869 80.232 61.436 C 80.643 61.103 80.917 60.64 81.003 60.131 C 81.063 59.719 81.096 59.304 81.108 58.889 L 81.108 57.271 C 81.154 56.557 80.971 55.847 80.584 55.234 C 80.084 54.685 79.329 54.409 78.572 54.5 L 76.165 54.5 C 75.489 54.44 74.814 54.607 74.255 54.972 C 73.849 55.327 73.6 55.815 73.562 56.339 L 63.467 56.339 L 64.617 31.984 L 90.065 31.984 L 90.065 41.073 L 73.745 41.073 L 73.47 46.977 C 74.132 46.515 74.906 46.219 75.721 46.12 C 76.586 45.997 77.46 45.934 78.336 45.932 L 82.507 45.932 C 84.341 45.86 86.157 46.29 87.738 47.176 C 89.076 47.999 90.127 49.181 90.758 50.571 C 91.437 52.091 91.774 53.73 91.752 55.383 L 91.752 61.076 C 91.842 63.108 91.297 65.12 90.183 66.858 C 89.027 68.417 87.349 69.557 85.424 70.09 C 82.803 70.837 80.075 71.181 77.342 71.11 L 77.368 71.134 Z" style=""/>
  <defs>
    <bx:grid x="0" y="0" width="60.344" height="61.4"/>
  </defs>
</svg>