<svg fill="gray" height="800" width="800" xmlns="http://www.w3.org/2000/svg" viewBox="0 0 211.4 211.4" xml:space="preserve" transform="scale(-1 1)" stroke="gray"><g stroke-width="0"/><g stroke-linecap="round" stroke-linejoin="round"/><path d="M182.327 49.815c-16.482-12.067-37.006-19.272-54.901-19.272-18.011 0-31.322 7.261-39.563 21.582-6.458 11.221-9.597 26.52-9.597 46.771s3.139 35.549 9.597 46.771c8.242 14.321 21.553 21.583 39.563 21.583 17.895 0 38.418-7.205 54.901-19.272 18.748-13.727 29.073-31.157 29.073-49.081s-10.325-35.355-29.073-49.082zm-8.861 86.06c-13.795 10.101-31.436 16.375-46.039 16.375-15.904 0-34.16-6.064-34.16-53.353s18.256-53.353 34.16-53.353c14.603 0 32.244 6.274 46.039 16.375C188.041 72.59 196.4 86.068 196.4 98.896s-8.359 26.307-22.934 36.979zM70.765 62.288a7.5 7.5 0 0 0-10.062-3.354L41.1 68.735c2.714-7.233 5.48-14.71 5.209-22.604-.142-4.14-3.61-7.386-7.753-7.238a7.5 7.5 0 0 0-7.238 7.753c.172 5.007-2.031 10.878-4.364 17.093-1.621 4.319-3.448 9.191-4.474 14.307L4.148 87.212A7.5 7.5 0 0 0 .794 97.274a7.5 7.5 0 0 0 10.062 3.354l12.198-6.099c1.489 4.499 4.308 8.944 9.098 13.146.06.052.114.105.172.157L4.148 121.92a7.5 7.5 0 0 0-3.354 10.062 7.5 7.5 0 0 0 10.062 3.354l26.378-13.189c-.639 3.641-2.131 7.828-4.039 12.911-.999 2.663-2.076 5.536-2.996 8.546L4.148 156.63a7.5 7.5 0 0 0-3.354 10.062 7.5 7.5 0 0 0 10.062 3.353l17.375-8.688c.888 6.013 3.781 12.04 10.162 17.637a7.47 7.47 0 0 0 4.943 1.862 7.501 7.501 0 0 0 4.949-13.138c-4.777-4.191-5.996-8.39-5.197-13.788l24.325-12.163a7.5 7.5 0 0 0 3.354-10.062 7.497 7.497 0 0 0-10.062-3.354l-11.157 5.579c2.004-5.996 3.586-12.635 2.744-19.311l15.122-7.561a7.5 7.5 0 0 0 3.354-10.062 7.5 7.5 0 0 0-10.062-3.354l-14.382 7.191a36 36 0 0 0-4.278-4.435c-3.181-2.79-4.78-5.585-5.261-8.734L67.411 72.35a7.5 7.5 0 0 0 3.354-10.062z"/></svg>