<svg fill="gray" height="800" width="800" xmlns="http://www.w3.org/2000/svg" viewBox="0 0 211.398 211.398" xml:space="preserve" stroke="gray"><g stroke-width="0"/><g stroke-linecap="round" stroke-linejoin="round"/><path d="M182.325 56.618c-16.482-12.067-37.006-19.272-54.901-19.272-18.011 0-31.322 7.262-39.563 21.583-6.457 11.221-9.597 26.52-9.597 46.771 0 20.25 3.139 35.549 9.597 46.771 8.242 14.321 21.553 21.583 39.563 21.583 17.895 0 38.419-7.205 54.901-19.272 18.748-13.727 29.073-31.158 29.073-49.081 0-17.926-10.325-35.356-29.073-49.083zm-8.861 86.059c-13.795 10.101-31.437 16.375-46.04 16.375-15.904 0-34.16-6.064-34.16-53.353s18.256-53.354 34.16-53.354c14.604 0 32.245 6.274 46.04 16.375 14.575 10.671 22.935 24.149 22.935 36.979-.001 12.829-8.36 26.307-22.935 36.978zM64.055 44.945 7.5 44.944a7.5 7.5 0 0 0 0 15l56.555.001a7.5 7.5 0 0 0 0-15zm0 27.354H7.5a7.5 7.5 0 0 0 0 15h56.555a7.5 7.5 0 0 0 0-15zm0 27.354H7.5a7.5 7.5 0 0 0 0 15h56.555a7.5 7.5 0 0 0 0-15zm0 27.355H7.5a7.5 7.5 0 0 0 0 15h56.555a7.5 7.5 0 0 0 0-15zm0 27.354H7.5a7.5 7.5 0 0 0 0 15h56.555a7.5 7.5 0 0 0 0-15z"/></svg>