<?xml version="1.0" encoding="utf-8"?>
<svg version="1.0" xmlns="http://www.w3.org/2000/svg" width="800px" height="800px" viewBox="0 0 800 800" xmlns:bx="https://boxy-svg.com"><defs><bx:export><bx:file format="svg"/></bx:export></defs><g transform="matrix(0.390195, 0, 0, -0.394991, 9.609805, 794.860962)" fill="#808080" stroke="none" style=""><path d="M142 1528 c-30 -30 -14 -63 77 -151 51 -50 97 -87 108 -87 23 0 53 29 53 51 0 8 -42 56 -93 107 -91 91 -119 106 -145 80z" style="stroke-width: 0px;"/><path d="M1712 1447 c-50 -51 -92 -99 -92 -108 0 -21 32 -49 55 -49 9 0 57 39 106 87 91 88 107 121 77 151 -26 26 -54 11 -146 -81z" style="stroke-width: 0px;"/><path d="M533 1301 c-51 -24 -97 -90 -112 -162 -6 -28 -11 -92 -11 -143 0 -260 124 -369 322 -284 63 27 150 120 172 184 35 102 12 223 -57 308 -76 92 -226 138 -314 97z m130 -92 c47 -13 112 -70 138 -120 25 -50 25 -128 0 -178 -37 -72 -124 -131 -194 -131 -29 0 -74 52 -87 101 -17 63 -9 234 13 280 27 55 61 67 130 48z" style="stroke-width: 0px;"/><path d="M1324 1311 c-99 -24 -197 -114 -229 -212 -22 -64 -17 -178 10 -229 51 -100 152 -174 257 -186 147 -17 228 94 228 317 0 234 -99 349 -266 310z m116 -119 c37 -37 50 -88 50 -190 0 -135 -26 -203 -84 -218 -63 -15 -166 48 -207 127 -53 105 10 253 127 294 58 21 83 18 114 -13z" style="stroke-width: 0px;"/><path d="M16 1034 c-20 -20 -20 -48 0 -68 12 -13 40 -16 144 -16 127 0 130 0 146 25 15 23 15 27 0 50 -16 25 -19 25 -146 25 -104 0 -132 -3 -144 -16z" style="stroke-width: 0px;"/><path d="M1694 1025 c-15 -23 -15 -27 0 -50 16 -25 19 -25 146 -25 136 0 160 7 160 50 0 43 -24 50 -160 50 -127 0 -130 0 -146 -25z" style="stroke-width: 0px;"/><path d="M219 623 c-67 -65 -89 -93 -89 -113 0 -31 17 -50 45 -50 24 0 205 177 205 201 0 21 -32 49 -55 49 -9 0 -57 -39 -106 -87z" style="stroke-width: 0px;"/><path d="M1637 692 c-10 -10 -17 -25 -17 -33 0 -23 182 -199 206 -199 27 0 44 19 44 50 0 20 -22 48 -89 113 -91 90 -115 101 -144 69z" style="stroke-width: 0px;"/></g></svg>